# generated by modelgen2 (OctBreak)
mtllib boss_omega_core.mtl
g core
usemtl core
v 0.8000 0.0000 0.0000
v 0.0000 1.1000 0.0000
v 0.0000 0.0000 0.8000
vn 0.6288 0.4573 0.6288
vn 0.6288 0.4573 0.6288
vn 0.6288 0.4573 0.6288
f 1//1 2//2 3//3
v 0.0000 0.0000 0.8000
v 0.0000 -1.1000 0.0000
v 0.8000 0.0000 0.0000
vn 0.6288 -0.4573 0.6288
vn 0.6288 -0.4573 0.6288
vn 0.6288 -0.4573 0.6288
f 4//4 5//5 6//6
v 0.0000 0.0000 0.8000
v 0.0000 1.1000 0.0000
v -0.8000 0.0000 0.0000
vn -0.6288 0.4573 0.6288
vn -0.6288 0.4573 0.6288
vn -0.6288 0.4573 0.6288
f 7//7 8//8 9//9
v -0.8000 0.0000 0.0000
v 0.0000 -1.1000 0.0000
v 0.0000 0.0000 0.8000
vn -0.6288 -0.4573 0.6288
vn -0.6288 -0.4573 0.6288
vn -0.6288 -0.4573 0.6288
f 10//10 11//11 12//12
v -0.8000 0.0000 0.0000
v 0.0000 1.1000 0.0000
v 0.0000 0.0000 -0.8000
vn -0.6288 0.4573 -0.6288
vn -0.6288 0.4573 -0.6288
vn -0.6288 0.4573 -0.6288
f 13//13 14//14 15//15
v 0.0000 0.0000 -0.8000
v 0.0000 -1.1000 0.0000
v -0.8000 0.0000 0.0000
vn -0.6288 -0.4573 -0.6288
vn -0.6288 -0.4573 -0.6288
vn -0.6288 -0.4573 -0.6288
f 16//16 17//17 18//18
v 0.0000 0.0000 -0.8000
v 0.0000 1.1000 0.0000
v 0.8000 0.0000 0.0000
vn 0.6288 0.4573 -0.6288
vn 0.6288 0.4573 -0.6288
vn 0.6288 0.4573 -0.6288
f 19//19 20//20 21//21
v 0.8000 0.0000 0.0000
v 0.0000 -1.1000 0.0000
v 0.0000 0.0000 -0.8000
vn 0.6288 -0.4573 -0.6288
vn 0.6288 -0.4573 -0.6288
vn 0.6288 -0.4573 -0.6288
f 22//22 23//23 24//24
