# generated by modelgen7 (OctBreak)
mtllib boss_nest_wing_l.mtl
g tip
usemtl tip
v -2.1775 -0.1000 0.1392
v -2.1775 0.3800 0.1392
v -2.0222 0.3800 0.1004
vn -0.2419 0.0000 -0.9703
vn -0.2419 0.0000 -0.9703
vn -0.2419 0.0000 -0.9703
f 1//1 2//2 3//3
v -2.1775 -0.1000 0.1392
v -2.0222 0.3800 0.1004
v -2.0222 -0.1000 0.1004
vn -0.2419 0.0000 -0.9703
vn -0.2419 0.0000 -0.9703
vn -0.2419 0.0000 -0.9703
f 4//4 5//5 6//6
v -2.0178 -0.1000 0.7796
v -1.8625 -0.1000 0.7408
v -1.8625 0.3800 0.7408
vn 0.2419 0.0000 0.9703
vn 0.2419 0.0000 0.9703
vn 0.2419 0.0000 0.9703
f 7//7 8//8 9//9
v -2.0178 -0.1000 0.7796
v -1.8625 0.3800 0.7408
v -2.0178 0.3800 0.7796
vn 0.2419 -0.0000 0.9703
vn 0.2419 -0.0000 0.9703
vn 0.2419 -0.0000 0.9703
f 10//10 11//11 12//12
v -2.1775 -0.1000 0.1392
v -2.0178 -0.1000 0.7796
v -2.0178 0.3800 0.7796
vn -0.9703 0.0000 0.2419
vn -0.9703 0.0000 0.2419
vn -0.9703 0.0000 0.2419
f 13//13 14//14 15//15
v -2.1775 -0.1000 0.1392
v -2.0178 0.3800 0.7796
v -2.1775 0.3800 0.1392
vn -0.9703 0.0000 0.2419
vn -0.9703 0.0000 0.2419
vn -0.9703 0.0000 0.2419
f 16//16 17//17 18//18
v -2.0222 -0.1000 0.1004
v -2.0222 0.3800 0.1004
v -1.8625 0.3800 0.7408
vn 0.9703 0.0000 -0.2419
vn 0.9703 0.0000 -0.2419
vn 0.9703 0.0000 -0.2419
f 19//19 20//20 21//21
v -2.0222 -0.1000 0.1004
v -1.8625 0.3800 0.7408
v -1.8625 -0.1000 0.7408
vn 0.9703 0.0000 -0.2419
vn 0.9703 0.0000 -0.2419
vn 0.9703 0.0000 -0.2419
f 22//22 23//23 24//24
v -2.1775 0.3800 0.1392
v -2.0178 0.3800 0.7796
v -1.8625 0.3800 0.7408
vn 0.0000 1.0000 0.0000
vn 0.0000 1.0000 0.0000
vn 0.0000 1.0000 0.0000
f 25//25 26//26 27//27
v -2.1775 0.3800 0.1392
v -1.8625 0.3800 0.7408
v -2.0222 0.3800 0.1004
vn -0.0000 1.0000 0.0000
vn -0.0000 1.0000 0.0000
vn -0.0000 1.0000 0.0000
f 28//28 29//29 30//30
v -2.1775 -0.1000 0.1392
v -2.0222 -0.1000 0.1004
v -1.8625 -0.1000 0.7408
vn 0.0000 -1.0000 0.0000
vn 0.0000 -1.0000 0.0000
vn 0.0000 -1.0000 0.0000
f 31//31 32//32 33//33
v -2.1775 -0.1000 0.1392
v -1.8625 -0.1000 0.7408
v -2.0178 -0.1000 0.7796
vn 0.0000 -1.0000 0.0000
vn 0.0000 -1.0000 0.0000
vn 0.0000 -1.0000 0.0000
f 34//34 35//35 36//36
g wing
usemtl wing
v -2.1146 -0.0700 0.0635
v -2.1146 0.0700 0.0635
v -0.1741 0.0700 -0.4203
vn -0.2419 0.0000 -0.9703
vn -0.2419 0.0000 -0.9703
vn -0.2419 0.0000 -0.9703
f 37//37 38//38 39//39
v -2.1146 -0.0700 0.0635
v -0.1741 0.0700 -0.4203
v -0.1741 -0.0700 -0.4203
vn -0.2419 0.0000 -0.9703
vn -0.2419 0.0000 -0.9703
vn -0.2419 0.0000 -0.9703
f 40//40 41//41 42//42
v -1.9259 -0.0700 0.8203
v 0.0146 -0.0700 0.3365
v 0.0146 0.0700 0.3365
vn 0.2419 0.0000 0.9703
vn 0.2419 0.0000 0.9703
vn 0.2419 0.0000 0.9703
f 43//43 44//44 45//45
v -1.9259 -0.0700 0.8203
v 0.0146 0.0700 0.3365
v -1.9259 0.0700 0.8203
vn 0.2419 -0.0000 0.9703
vn 0.2419 -0.0000 0.9703
vn 0.2419 -0.0000 0.9703
f 46//46 47//47 48//48
v -2.1146 -0.0700 0.0635
v -1.9259 -0.0700 0.8203
v -1.9259 0.0700 0.8203
vn -0.9703 0.0000 0.2419
vn -0.9703 0.0000 0.2419
vn -0.9703 0.0000 0.2419
f 49//49 50//50 51//51
v -2.1146 -0.0700 0.0635
v -1.9259 0.0700 0.8203
v -2.1146 0.0700 0.0635
vn -0.9703 0.0000 0.2419
vn -0.9703 0.0000 0.2419
vn -0.9703 0.0000 0.2419
f 52//52 53//53 54//54
v -0.1741 -0.0700 -0.4203
v -0.1741 0.0700 -0.4203
v 0.0146 0.0700 0.3365
vn 0.9703 0.0000 -0.2419
vn 0.9703 0.0000 -0.2419
vn 0.9703 0.0000 -0.2419
f 55//55 56//56 57//57
v -0.1741 -0.0700 -0.4203
v 0.0146 0.0700 0.3365
v 0.0146 -0.0700 0.3365
vn 0.9703 0.0000 -0.2419
vn 0.9703 0.0000 -0.2419
vn 0.9703 0.0000 -0.2419
f 58//58 59//59 60//60
v -2.1146 0.0700 0.0635
v -1.9259 0.0700 0.8203
v 0.0146 0.0700 0.3365
vn 0.0000 1.0000 0.0000
vn 0.0000 1.0000 0.0000
vn 0.0000 1.0000 0.0000
f 61//61 62//62 63//63
v -2.1146 0.0700 0.0635
v 0.0146 0.0700 0.3365
v -0.1741 0.0700 -0.4203
vn -0.0000 1.0000 0.0000
vn -0.0000 1.0000 0.0000
vn -0.0000 1.0000 0.0000
f 64//64 65//65 66//66
v -2.1146 -0.0700 0.0635
v -0.1741 -0.0700 -0.4203
v 0.0146 -0.0700 0.3365
vn 0.0000 -1.0000 0.0000
vn 0.0000 -1.0000 0.0000
vn 0.0000 -1.0000 0.0000
f 67//67 68//68 69//69
v -2.1146 -0.0700 0.0635
v 0.0146 -0.0700 0.3365
v -1.9259 -0.0700 0.8203
vn 0.0000 -1.0000 0.0000
vn 0.0000 -1.0000 0.0000
vn 0.0000 -1.0000 0.0000
f 70//70 71//71 72//72
v -0.9000 -0.1000 -0.5000
v -0.9000 0.1000 -0.5000
v 0.0000 0.1000 -0.5000
vn 0.0000 0.0000 -1.0000
vn 0.0000 0.0000 -1.0000
vn 0.0000 0.0000 -1.0000
f 73//73 74//74 75//75
v -0.9000 -0.1000 -0.5000
v 0.0000 0.1000 -0.5000
v 0.0000 -0.1000 -0.5000
vn 0.0000 0.0000 -1.0000
vn 0.0000 0.0000 -1.0000
vn 0.0000 0.0000 -1.0000
f 76//76 77//77 78//78
v -0.9000 -0.1000 0.5000
v 0.0000 -0.1000 0.5000
v 0.0000 0.1000 0.5000
vn 0.0000 0.0000 1.0000
vn 0.0000 0.0000 1.0000
vn 0.0000 0.0000 1.0000
f 79//79 80//80 81//81
v -0.9000 -0.1000 0.5000
v 0.0000 0.1000 0.5000
v -0.9000 0.1000 0.5000
vn 0.0000 0.0000 1.0000
vn 0.0000 0.0000 1.0000
vn 0.0000 0.0000 1.0000
f 82//82 83//83 84//84
v -0.9000 -0.1000 -0.5000
v -0.9000 -0.1000 0.5000
v -0.9000 0.1000 0.5000
vn -1.0000 0.0000 0.0000
vn -1.0000 0.0000 0.0000
vn -1.0000 0.0000 0.0000
f 85//85 86//86 87//87
v -0.9000 -0.1000 -0.5000
v -0.9000 0.1000 0.5000
v -0.9000 0.1000 -0.5000
vn -1.0000 0.0000 0.0000
vn -1.0000 0.0000 0.0000
vn -1.0000 0.0000 0.0000
f 88//88 89//89 90//90
v 0.0000 -0.1000 -0.5000
v 0.0000 0.1000 -0.5000
v 0.0000 0.1000 0.5000
vn 1.0000 0.0000 0.0000
vn 1.0000 0.0000 0.0000
vn 1.0000 0.0000 0.0000
f 91//91 92//92 93//93
v 0.0000 -0.1000 -0.5000
v 0.0000 0.1000 0.5000
v 0.0000 -0.1000 0.5000
vn 1.0000 0.0000 0.0000
vn 1.0000 0.0000 0.0000
vn 1.0000 0.0000 0.0000
f 94//94 95//95 96//96
v -0.9000 0.1000 -0.5000
v -0.9000 0.1000 0.5000
v 0.0000 0.1000 0.5000
vn 0.0000 1.0000 0.0000
vn 0.0000 1.0000 0.0000
vn 0.0000 1.0000 0.0000
f 97//97 98//98 99//99
v -0.9000 0.1000 -0.5000
v 0.0000 0.1000 0.5000
v 0.0000 0.1000 -0.5000
vn 0.0000 1.0000 0.0000
vn 0.0000 1.0000 0.0000
vn 0.0000 1.0000 0.0000
f 100//100 101//101 102//102
v -0.9000 -0.1000 -0.5000
v 0.0000 -0.1000 -0.5000
v 0.0000 -0.1000 0.5000
vn 0.0000 -1.0000 0.0000
vn 0.0000 -1.0000 0.0000
vn 0.0000 -1.0000 0.0000
f 103//103 104//104 105//105
v -0.9000 -0.1000 -0.5000
v 0.0000 -0.1000 0.5000
v -0.9000 -0.1000 0.5000
vn 0.0000 -1.0000 0.0000
vn 0.0000 -1.0000 0.0000
vn 0.0000 -1.0000 0.0000
f 106//106 107//107 108//108
