# generated by modelgen2 (OctBreak)
mtllib enemy_phantom.mtl
g body
usemtl body
v 0.1600 0.4200 0.0000
v 0.0000 0.7300 0.0000
v 0.0000 0.4200 0.1600
vn 0.6643 0.3428 0.6643
vn 0.6643 0.3428 0.6643
vn 0.6643 0.3428 0.6643
f 1//1 2//2 3//3
v 0.0000 0.4200 0.1600
v 0.0000 0.1100 0.0000
v 0.1600 0.4200 0.0000
vn 0.6643 -0.3428 0.6643
vn 0.6643 -0.3428 0.6643
vn 0.6643 -0.3428 0.6643
f 4//4 5//5 6//6
v 0.0000 0.4200 0.1600
v 0.0000 0.7300 0.0000
v -0.1600 0.4200 0.0000
vn -0.6643 0.3428 0.6643
vn -0.6643 0.3428 0.6643
vn -0.6643 0.3428 0.6643
f 7//7 8//8 9//9
v -0.1600 0.4200 0.0000
v 0.0000 0.1100 0.0000
v 0.0000 0.4200 0.1600
vn -0.6643 -0.3428 0.6643
vn -0.6643 -0.3428 0.6643
vn -0.6643 -0.3428 0.6643
f 10//10 11//11 12//12
v -0.1600 0.4200 0.0000
v 0.0000 0.7300 0.0000
v 0.0000 0.4200 -0.1600
vn -0.6643 0.3428 -0.6643
vn -0.6643 0.3428 -0.6643
vn -0.6643 0.3428 -0.6643
f 13//13 14//14 15//15
v 0.0000 0.4200 -0.1600
v 0.0000 0.1100 0.0000
v -0.1600 0.4200 0.0000
vn -0.6643 -0.3428 -0.6643
vn -0.6643 -0.3428 -0.6643
vn -0.6643 -0.3428 -0.6643
f 16//16 17//17 18//18
v 0.0000 0.4200 -0.1600
v 0.0000 0.7300 0.0000
v 0.1600 0.4200 0.0000
vn 0.6643 0.3428 -0.6643
vn 0.6643 0.3428 -0.6643
vn 0.6643 0.3428 -0.6643
f 19//19 20//20 21//21
v 0.1600 0.4200 0.0000
v 0.0000 0.1100 0.0000
v 0.0000 0.4200 -0.1600
vn 0.6643 -0.3428 -0.6643
vn 0.6643 -0.3428 -0.6643
vn 0.6643 -0.3428 -0.6643
f 22//22 23//23 24//24
g eye
usemtl eye
v 0.0400 0.5200 -0.1400
v 0.0000 0.5800 -0.1400
v 0.0000 0.5200 -0.1150
vn 0.4997 0.3331 0.7996
vn 0.4997 0.3331 0.7996
vn 0.4997 0.3331 0.7996
f 25//25 26//26 27//27
v 0.0000 0.5200 -0.1150
v 0.0000 0.4600 -0.1400
v 0.0400 0.5200 -0.1400
vn 0.4997 -0.3331 0.7996
vn 0.4997 -0.3331 0.7996
vn 0.4997 -0.3331 0.7996
f 28//28 29//29 30//30
v 0.0000 0.5200 -0.1150
v 0.0000 0.5800 -0.1400
v -0.0400 0.5200 -0.1400
vn -0.4997 0.3331 0.7996
vn -0.4997 0.3331 0.7996
vn -0.4997 0.3331 0.7996
f 31//31 32//32 33//33
v -0.0400 0.5200 -0.1400
v 0.0000 0.4600 -0.1400
v 0.0000 0.5200 -0.1150
vn -0.4997 -0.3331 0.7996
vn -0.4997 -0.3331 0.7996
vn -0.4997 -0.3331 0.7996
f 34//34 35//35 36//36
v -0.0400 0.5200 -0.1400
v 0.0000 0.5800 -0.1400
v 0.0000 0.5200 -0.1650
vn -0.4997 0.3331 -0.7996
vn -0.4997 0.3331 -0.7996
vn -0.4997 0.3331 -0.7996
f 37//37 38//38 39//39
v 0.0000 0.5200 -0.1650
v 0.0000 0.4600 -0.1400
v -0.0400 0.5200 -0.1400
vn -0.4997 -0.3331 -0.7996
vn -0.4997 -0.3331 -0.7996
vn -0.4997 -0.3331 -0.7996
f 40//40 41//41 42//42
v 0.0000 0.5200 -0.1650
v 0.0000 0.5800 -0.1400
v 0.0400 0.5200 -0.1400
vn 0.4997 0.3331 -0.7996
vn 0.4997 0.3331 -0.7996
vn 0.4997 0.3331 -0.7996
f 43//43 44//44 45//45
v 0.0400 0.5200 -0.1400
v 0.0000 0.4600 -0.1400
v 0.0000 0.5200 -0.1650
vn 0.4997 -0.3331 -0.7996
vn 0.4997 -0.3331 -0.7996
vn 0.4997 -0.3331 -0.7996
f 46//46 47//47 48//48
