# generated by modelgen2 (OctBreak)
mtllib enemy_wing_l.mtl
g tip
usemtl tip
v -0.6852 -0.0300 0.0474
v -0.6852 0.1100 0.0474
v -0.6363 0.1100 0.0370
vn -0.2079 0.0000 -0.9781
vn -0.2079 0.0000 -0.9781
vn -0.2079 0.0000 -0.9781
f 1//1 2//2 3//3
v -0.6852 -0.0300 0.0474
v -0.6363 0.1100 0.0370
v -0.6363 -0.0300 0.0370
vn -0.2079 0.0000 -0.9781
vn -0.2079 0.0000 -0.9781
vn -0.2079 0.0000 -0.9781
f 4//4 5//5 6//6
v -0.6437 -0.0300 0.2430
v -0.5948 -0.0300 0.2326
v -0.5948 0.1100 0.2326
vn 0.2079 0.0000 0.9781
vn 0.2079 0.0000 0.9781
vn 0.2079 0.0000 0.9781
f 7//7 8//8 9//9
v -0.6437 -0.0300 0.2430
v -0.5948 0.1100 0.2326
v -0.6437 0.1100 0.2430
vn 0.2079 -0.0000 0.9781
vn 0.2079 -0.0000 0.9781
vn 0.2079 -0.0000 0.9781
f 10//10 11//11 12//12
v -0.6852 -0.0300 0.0474
v -0.6437 -0.0300 0.2430
v -0.6437 0.1100 0.2430
vn -0.9781 0.0000 0.2079
vn -0.9781 0.0000 0.2079
vn -0.9781 0.0000 0.2079
f 13//13 14//14 15//15
v -0.6852 -0.0300 0.0474
v -0.6437 0.1100 0.2430
v -0.6852 0.1100 0.0474
vn -0.9781 0.0000 0.2079
vn -0.9781 0.0000 0.2079
vn -0.9781 0.0000 0.2079
f 16//16 17//17 18//18
v -0.6363 -0.0300 0.0370
v -0.6363 0.1100 0.0370
v -0.5948 0.1100 0.2326
vn 0.9781 0.0000 -0.2079
vn 0.9781 0.0000 -0.2079
vn 0.9781 0.0000 -0.2079
f 19//19 20//20 21//21
v -0.6363 -0.0300 0.0370
v -0.5948 0.1100 0.2326
v -0.5948 -0.0300 0.2326
vn 0.9781 0.0000 -0.2079
vn 0.9781 0.0000 -0.2079
vn 0.9781 0.0000 -0.2079
f 22//22 23//23 24//24
v -0.6852 0.1100 0.0474
v -0.6437 0.1100 0.2430
v -0.5948 0.1100 0.2326
vn 0.0000 1.0000 0.0000
vn 0.0000 1.0000 0.0000
vn 0.0000 1.0000 0.0000
f 25//25 26//26 27//27
v -0.6852 0.1100 0.0474
v -0.5948 0.1100 0.2326
v -0.6363 0.1100 0.0370
vn -0.0000 1.0000 0.0000
vn -0.0000 1.0000 0.0000
vn -0.0000 1.0000 0.0000
f 28//28 29//29 30//30
v -0.6852 -0.0300 0.0474
v -0.6363 -0.0300 0.0370
v -0.5948 -0.0300 0.2326
vn 0.0000 -1.0000 0.0000
vn 0.0000 -1.0000 0.0000
vn 0.0000 -1.0000 0.0000
f 31//31 32//32 33//33
v -0.6852 -0.0300 0.0474
v -0.5948 -0.0300 0.2326
v -0.6437 -0.0300 0.2430
vn 0.0000 -1.0000 0.0000
vn 0.0000 -1.0000 0.0000
vn 0.0000 -1.0000 0.0000
f 34//34 35//35 36//36
g wing
usemtl wing
v -0.6682 -0.0225 0.0071
v -0.6682 0.0225 0.0071
v -0.0617 0.0225 -0.1218
vn -0.2079 0.0000 -0.9781
vn -0.2079 0.0000 -0.9781
vn -0.2079 0.0000 -0.9781
f 37//37 38//38 39//39
v -0.6682 -0.0225 0.0071
v -0.0617 0.0225 -0.1218
v -0.0617 -0.0225 -0.1218
vn -0.2079 0.0000 -0.9781
vn -0.2079 0.0000 -0.9781
vn -0.2079 0.0000 -0.9781
f 40//40 41//41 42//42
v -0.6183 -0.0225 0.2418
v -0.0118 -0.0225 0.1129
v -0.0118 0.0225 0.1129
vn 0.2079 0.0000 0.9781
vn 0.2079 0.0000 0.9781
vn 0.2079 0.0000 0.9781
f 43//43 44//44 45//45
v -0.6183 -0.0225 0.2418
v -0.0118 0.0225 0.1129
v -0.6183 0.0225 0.2418
vn 0.2079 -0.0000 0.9781
vn 0.2079 -0.0000 0.9781
vn 0.2079 -0.0000 0.9781
f 46//46 47//47 48//48
v -0.6682 -0.0225 0.0071
v -0.6183 -0.0225 0.2418
v -0.6183 0.0225 0.2418
vn -0.9781 0.0000 0.2079
vn -0.9781 0.0000 0.2079
vn -0.9781 0.0000 0.2079
f 49//49 50//50 51//51
v -0.6682 -0.0225 0.0071
v -0.6183 0.0225 0.2418
v -0.6682 0.0225 0.0071
vn -0.9781 0.0000 0.2079
vn -0.9781 0.0000 0.2079
vn -0.9781 0.0000 0.2079
f 52//52 53//53 54//54
v -0.0617 -0.0225 -0.1218
v -0.0617 0.0225 -0.1218
v -0.0118 0.0225 0.1129
vn 0.9781 0.0000 -0.2079
vn 0.9781 0.0000 -0.2079
vn 0.9781 0.0000 -0.2079
f 55//55 56//56 57//57
v -0.0617 -0.0225 -0.1218
v -0.0118 0.0225 0.1129
v -0.0118 -0.0225 0.1129
vn 0.9781 0.0000 -0.2079
vn 0.9781 0.0000 -0.2079
vn 0.9781 0.0000 -0.2079
f 58//58 59//59 60//60
v -0.6682 0.0225 0.0071
v -0.6183 0.0225 0.2418
v -0.0118 0.0225 0.1129
vn 0.0000 1.0000 0.0000
vn 0.0000 1.0000 0.0000
vn 0.0000 1.0000 0.0000
f 61//61 62//62 63//63
v -0.6682 0.0225 0.0071
v -0.0118 0.0225 0.1129
v -0.0617 0.0225 -0.1218
vn -0.0000 1.0000 0.0000
vn -0.0000 1.0000 0.0000
vn -0.0000 1.0000 0.0000
f 64//64 65//65 66//66
v -0.6682 -0.0225 0.0071
v -0.0617 -0.0225 -0.1218
v -0.0118 -0.0225 0.1129
vn 0.0000 -1.0000 0.0000
vn 0.0000 -1.0000 0.0000
vn 0.0000 -1.0000 0.0000
f 67//67 68//68 69//69
v -0.6682 -0.0225 0.0071
v -0.0118 -0.0225 0.1129
v -0.6183 -0.0225 0.2418
vn 0.0000 -1.0000 0.0000
vn 0.0000 -1.0000 0.0000
vn 0.0000 -1.0000 0.0000
f 70//70 71//71 72//72
v -0.3500 -0.0300 -0.1700
v -0.3500 0.0300 -0.1700
v -0.0500 0.0300 -0.1700
vn 0.0000 0.0000 -1.0000
vn 0.0000 0.0000 -1.0000
vn 0.0000 0.0000 -1.0000
f 73//73 74//74 75//75
v -0.3500 -0.0300 -0.1700
v -0.0500 0.0300 -0.1700
v -0.0500 -0.0300 -0.1700
vn 0.0000 0.0000 -1.0000
vn 0.0000 0.0000 -1.0000
vn 0.0000 0.0000 -1.0000
f 76//76 77//77 78//78
v -0.3500 -0.0300 0.1300
v -0.0500 -0.0300 0.1300
v -0.0500 0.0300 0.1300
vn 0.0000 0.0000 1.0000
vn 0.0000 0.0000 1.0000
vn 0.0000 0.0000 1.0000
f 79//79 80//80 81//81
v -0.3500 -0.0300 0.1300
v -0.0500 0.0300 0.1300
v -0.3500 0.0300 0.1300
vn 0.0000 0.0000 1.0000
vn 0.0000 0.0000 1.0000
vn 0.0000 0.0000 1.0000
f 82//82 83//83 84//84
v -0.3500 -0.0300 -0.1700
v -0.3500 -0.0300 0.1300
v -0.3500 0.0300 0.1300
vn -1.0000 0.0000 0.0000
vn -1.0000 0.0000 0.0000
vn -1.0000 0.0000 0.0000
f 85//85 86//86 87//87
v -0.3500 -0.0300 -0.1700
v -0.3500 0.0300 0.1300
v -0.3500 0.0300 -0.1700
vn -1.0000 0.0000 0.0000
vn -1.0000 0.0000 0.0000
vn -1.0000 0.0000 0.0000
f 88//88 89//89 90//90
v -0.0500 -0.0300 -0.1700
v -0.0500 0.0300 -0.1700
v -0.0500 0.0300 0.1300
vn 1.0000 0.0000 0.0000
vn 1.0000 0.0000 0.0000
vn 1.0000 0.0000 0.0000
f 91//91 92//92 93//93
v -0.0500 -0.0300 -0.1700
v -0.0500 0.0300 0.1300
v -0.0500 -0.0300 0.1300
vn 1.0000 0.0000 0.0000
vn 1.0000 0.0000 0.0000
vn 1.0000 0.0000 0.0000
f 94//94 95//95 96//96
v -0.3500 0.0300 -0.1700
v -0.3500 0.0300 0.1300
v -0.0500 0.0300 0.1300
vn 0.0000 1.0000 0.0000
vn 0.0000 1.0000 0.0000
vn 0.0000 1.0000 0.0000
f 97//97 98//98 99//99
v -0.3500 0.0300 -0.1700
v -0.0500 0.0300 0.1300
v -0.0500 0.0300 -0.1700
vn 0.0000 1.0000 0.0000
vn 0.0000 1.0000 0.0000
vn 0.0000 1.0000 0.0000
f 100//100 101//101 102//102
v -0.3500 -0.0300 -0.1700
v -0.0500 -0.0300 -0.1700
v -0.0500 -0.0300 0.1300
vn 0.0000 -1.0000 0.0000
vn 0.0000 -1.0000 0.0000
vn 0.0000 -1.0000 0.0000
f 103//103 104//104 105//105
v -0.3500 -0.0300 -0.1700
v -0.0500 -0.0300 0.1300
v -0.3500 -0.0300 0.1300
vn 0.0000 -1.0000 0.0000
vn 0.0000 -1.0000 0.0000
vn 0.0000 -1.0000 0.0000
f 106//106 107//107 108//108
