# generated by modelgen2 (OctBreak)
mtllib Head_Oracle.mtl
g dark
usemtl dark
v 0.0400 -0.0400 0.3600
v -0.0400 -0.0400 0.3600
v -0.0700 -0.0100 0.3600
vn 0.0000 0.0000 -1.0000
vn 0.0000 0.0000 -1.0000
vn 0.0000 0.0000 -1.0000
f 1//1 2//2 3//3
v 0.0400 -0.0400 0.3600
v 0.0350 -0.0300 0.4800
v -0.0400 -0.0400 0.3600
vn 0.0000 -0.9965 0.0830
vn 0.0000 -0.9965 0.0830
vn 0.0000 -0.9965 0.0830
f 4//4 5//5 6//6
v 0.0400 -0.0400 0.3600
v -0.0700 -0.0100 0.3600
v -0.0700 0.1300 0.3600
vn 0.0000 0.0000 -1.0000
vn 0.0000 0.0000 -1.0000
vn 0.0000 0.0000 -1.0000
f 7//7 8//8 9//9
v 0.0400 -0.0400 0.3600
v -0.0700 0.1300 0.3600
v -0.0400 0.1600 0.3600
vn 0.0000 0.0000 -1.0000
vn 0.0000 0.0000 -1.0000
vn 0.0000 0.0000 -1.0000
f 10//10 11//11 12//12
v 0.0400 -0.0400 0.3600
v -0.0400 0.1600 0.3600
v 0.0400 0.1600 0.3600
vn 0.0000 0.0000 -1.0000
vn 0.0000 0.0000 -1.0000
vn 0.0000 0.0000 -1.0000
f 13//13 14//14 15//15
v 0.0400 -0.0400 0.3600
v 0.0400 0.1600 0.3600
v 0.0700 0.1300 0.3600
vn 0.0000 0.0000 -1.0000
vn 0.0000 0.0000 -1.0000
vn 0.0000 0.0000 -1.0000
f 16//16 17//17 18//18
v 0.0350 -0.0300 0.4800
v 0.0400 -0.0400 0.3600
v 0.0700 -0.0100 0.3600
vn 0.7044 -0.7044 0.0880
vn 0.7044 -0.7044 0.0880
vn 0.7044 -0.7044 0.0880
f 19//19 20//20 21//21
v 0.0400 -0.0400 0.3600
v 0.0700 0.1300 0.3600
v 0.0700 -0.0100 0.3600
vn 0.0000 0.0000 -1.0000
vn 0.0000 0.0000 -1.0000
vn 0.0000 0.0000 -1.0000
f 22//22 23//23 24//24
v -0.0400 -0.0400 0.3600
v 0.0350 -0.0300 0.4800
v -0.0350 -0.0300 0.4800
vn 0.0000 -0.9965 0.0830
vn 0.0000 -0.9965 0.0830
vn 0.0000 -0.9965 0.0830
f 25//25 26//26 27//27
v -0.0700 -0.0100 0.3600
v -0.0400 -0.0400 0.3600
v -0.0350 -0.0300 0.4800
vn -0.7044 -0.7044 0.0880
vn -0.7044 -0.7044 0.0880
vn -0.7044 -0.7044 0.0880
f 28//28 29//29 30//30
v -0.0700 0.1300 0.3600
v -0.0700 -0.0100 0.3600
v -0.0600 -0.0050 0.4800
vn -0.9965 0.0000 0.0830
vn -0.9965 0.0000 0.0830
vn -0.9965 0.0000 0.0830
f 31//31 32//32 33//33
v -0.0700 -0.0100 0.3600
v -0.0350 -0.0300 0.4800
v -0.0600 -0.0050 0.4800
vn -0.7044 -0.7044 0.0880
vn -0.7044 -0.7044 0.0880
vn -0.7044 -0.7044 0.0880
f 34//34 35//35 36//36
v -0.0350 -0.0300 0.4800
v 0.0350 -0.0300 0.4800
v -0.0600 -0.0050 0.4800
vn 0.0000 -0.0000 1.0000
vn 0.0000 -0.0000 1.0000
vn 0.0000 -0.0000 1.0000
f 37//37 38//38 39//39
v -0.0600 -0.0050 0.4800
v 0.0350 -0.0300 0.4800
v -0.0600 0.1250 0.4800
vn -0.0000 0.0000 1.0000
vn -0.0000 0.0000 1.0000
vn -0.0000 0.0000 1.0000
f 40//40 41//41 42//42
v -0.0400 0.1600 0.3600
v -0.0700 0.1300 0.3600
v -0.0600 0.1250 0.4800
vn -0.7044 0.7044 0.0880
vn -0.7044 0.7044 0.0880
vn -0.7044 0.7044 0.0880
f 43//43 44//44 45//45
v -0.0700 0.1300 0.3600
v -0.0600 -0.0050 0.4800
v -0.0600 0.1250 0.4800
vn -0.9965 0.0000 0.0830
vn -0.9965 0.0000 0.0830
vn -0.9965 0.0000 0.0830
f 46//46 47//47 48//48
v -0.0600 0.1250 0.4800
v 0.0350 -0.0300 0.4800
v -0.0350 0.1500 0.4800
vn -0.0000 0.0000 1.0000
vn -0.0000 0.0000 1.0000
vn -0.0000 0.0000 1.0000
f 49//49 50//50 51//51
v 0.0400 0.1600 0.3600
v -0.0400 0.1600 0.3600
v -0.0350 0.1500 0.4800
vn 0.0000 0.9965 0.0830
vn 0.0000 0.9965 0.0830
vn 0.0000 0.9965 0.0830
f 52//52 53//53 54//54
v -0.0400 0.1600 0.3600
v -0.0600 0.1250 0.4800
v -0.0350 0.1500 0.4800
vn -0.7044 0.7044 0.0880
vn -0.7044 0.7044 0.0880
vn -0.7044 0.7044 0.0880
f 55//55 56//56 57//57
v -0.0350 0.1500 0.4800
v 0.0350 -0.0300 0.4800
v 0.0350 0.1500 0.4800
vn -0.0000 0.0000 1.0000
vn -0.0000 0.0000 1.0000
vn -0.0000 0.0000 1.0000
f 58//58 59//59 60//60
v 0.0700 0.1300 0.3600
v 0.0400 0.1600 0.3600
v 0.0350 0.1500 0.4800
vn 0.7044 0.7044 0.0880
vn 0.7044 0.7044 0.0880
vn 0.7044 0.7044 0.0880
f 61//61 62//62 63//63
v 0.0400 0.1600 0.3600
v -0.0350 0.1500 0.4800
v 0.0350 0.1500 0.4800
vn 0.0000 0.9965 0.0830
vn 0.0000 0.9965 0.0830
vn 0.0000 0.9965 0.0830
f 64//64 65//65 66//66
v 0.0700 -0.0100 0.3600
v 0.0700 0.1300 0.3600
v 0.0600 0.1250 0.4800
vn 0.9965 -0.0000 0.0830
vn 0.9965 -0.0000 0.0830
vn 0.9965 -0.0000 0.0830
f 67//67 68//68 69//69
v 0.0700 0.1300 0.3600
v 0.0350 0.1500 0.4800
v 0.0600 0.1250 0.4800
vn 0.7044 0.7044 0.0880
vn 0.7044 0.7044 0.0880
vn 0.7044 0.7044 0.0880
f 70//70 71//71 72//72
v 0.0350 0.1500 0.4800
v 0.0350 -0.0300 0.4800
v 0.0600 0.1250 0.4800
vn 0.0000 0.0000 1.0000
vn 0.0000 0.0000 1.0000
vn 0.0000 0.0000 1.0000
f 73//73 74//74 75//75
v 0.0350 -0.0300 0.4800
v 0.0700 -0.0100 0.3600
v 0.0600 -0.0050 0.4800
vn 0.7044 -0.7044 0.0880
vn 0.7044 -0.7044 0.0880
vn 0.7044 -0.7044 0.0880
f 76//76 77//77 78//78
v 0.0700 -0.0100 0.3600
v 0.0600 0.1250 0.4800
v 0.0600 -0.0050 0.4800
vn 0.9965 0.0000 0.0830
vn 0.9965 0.0000 0.0830
vn 0.9965 0.0000 0.0830
f 79//79 80//80 81//81
v 0.0600 0.1250 0.4800
v 0.0350 -0.0300 0.4800
v 0.0600 -0.0050 0.4800
vn 0.0000 0.0000 1.0000
vn 0.0000 0.0000 1.0000
vn 0.0000 0.0000 1.0000
f 82//82 83//83 84//84
v -0.1000 0.2400 -0.0000
v -0.1000 0.2400 0.0200
v -0.1200 0.2400 -0.0000
vn 0.0000 -1.0000 0.0000
vn 0.0000 -1.0000 0.0000
vn 0.0000 -1.0000 0.0000
f 85//85 86//86 87//87
v -0.1000 0.2400 -0.0000
v -0.1200 0.2400 -0.0000
v -0.2000 0.4500 0.2000
vn 0.0000 0.6897 -0.7241
vn 0.0000 0.6897 -0.7241
vn 0.0000 0.6897 -0.7241
f 88//88 89//89 90//90
v -0.1000 0.2400 -0.0000
v -0.2000 0.4500 0.2000
v -0.1000 0.2400 0.0200
vn 0.9029 0.4299 -0.0000
vn 0.9029 0.4299 -0.0000
vn 0.9029 0.4299 -0.0000
f 91//91 92//92 93//93
v -0.1200 0.2400 -0.0000
v -0.1000 0.2400 0.0200
v -0.1200 0.2400 0.0200
vn 0.0000 -1.0000 0.0000
vn 0.0000 -1.0000 0.0000
vn 0.0000 -1.0000 0.0000
f 94//94 95//95 96//96
v -0.2000 0.4500 0.2000
v -0.1200 0.2400 -0.0000
v -0.2100 0.4500 0.2000
vn 0.0000 0.6897 -0.7241
vn 0.0000 0.6897 -0.7241
vn 0.0000 0.6897 -0.7241
f 97//97 98//98 99//99
v -0.1200 0.2400 -0.0000
v -0.1200 0.2400 0.0200
v -0.2100 0.4500 0.2000
vn -0.9191 -0.3939 0.0000
vn -0.9191 -0.3939 0.0000
vn -0.9191 -0.3939 0.0000
f 100//100 101//101 102//102
v -0.1000 0.2400 0.0200
v -0.2000 0.4500 0.2000
v -0.2000 0.4500 0.2100
vn 0.9029 0.4299 0.0000
vn 0.9029 0.4299 0.0000
vn 0.9029 0.4299 0.0000
f 103//103 104//104 105//105
v -0.1200 0.2400 0.0200
v -0.1000 0.2400 0.0200
v -0.2000 0.4500 0.2100
vn 0.0000 -0.6709 0.7415
vn 0.0000 -0.6709 0.7415
vn 0.0000 -0.6709 0.7415
f 106//106 107//107 108//108
v -0.2000 0.4500 0.2000
v -0.2100 0.4500 0.2000
v -0.2000 0.4500 0.2100
vn 0.0000 1.0000 -0.0000
vn 0.0000 1.0000 -0.0000
vn 0.0000 1.0000 -0.0000
f 109//109 110//110 111//111
v -0.2100 0.4500 0.2000
v -0.1200 0.2400 0.0200
v -0.2100 0.4500 0.2100
vn -0.9191 -0.3939 0.0000
vn -0.9191 -0.3939 0.0000
vn -0.9191 -0.3939 0.0000
f 112//112 113//113 114//114
v -0.1200 0.2400 0.0200
v -0.2000 0.4500 0.2100
v -0.2100 0.4500 0.2100
vn 0.0000 -0.6709 0.7415
vn 0.0000 -0.6709 0.7415
vn 0.0000 -0.6709 0.7415
f 115//115 116//116 117//117
v -0.2000 0.4500 0.2100
v -0.2100 0.4500 0.2000
v -0.2100 0.4500 0.2100
vn 0.0000 1.0000 0.0000
vn 0.0000 1.0000 0.0000
vn 0.0000 1.0000 0.0000
f 118//118 119//119 120//120
v 0.1000 0.2400 -0.0000
v 0.1200 0.2400 -0.0000
v 0.1000 0.2400 0.0200
vn 0.0000 -1.0000 0.0000
vn 0.0000 -1.0000 0.0000
vn 0.0000 -1.0000 0.0000
f 121//121 122//122 123//123
v 0.1000 0.2400 -0.0000
v 0.2000 0.4500 0.2000
v 0.1200 0.2400 -0.0000
vn 0.0000 0.6897 -0.7241
vn 0.0000 0.6897 -0.7241
vn 0.0000 0.6897 -0.7241
f 124//124 125//125 126//126
v 0.1000 0.2400 -0.0000
v 0.1000 0.2400 0.0200
v 0.2000 0.4500 0.2000
vn -0.9029 0.4299 0.0000
vn -0.9029 0.4299 0.0000
vn -0.9029 0.4299 0.0000
f 127//127 128//128 129//129
v 0.1000 0.2400 0.0200
v 0.1200 0.2400 -0.0000
v 0.1200 0.2400 0.0200
vn 0.0000 -1.0000 0.0000
vn 0.0000 -1.0000 0.0000
vn 0.0000 -1.0000 0.0000
f 130//130 131//131 132//132
v 0.1200 0.2400 -0.0000
v 0.2000 0.4500 0.2000
v 0.2100 0.4500 0.2000
vn 0.0000 0.6897 -0.7241
vn 0.0000 0.6897 -0.7241
vn 0.0000 0.6897 -0.7241
f 133//133 134//134 135//135
v 0.1200 0.2400 0.0200
v 0.1200 0.2400 -0.0000
v 0.2100 0.4500 0.2000
vn 0.9191 -0.3939 0.0000
vn 0.9191 -0.3939 0.0000
vn 0.9191 -0.3939 0.0000
f 136//136 137//137 138//138
v 0.2000 0.4500 0.2000
v 0.1000 0.2400 0.0200
v 0.2000 0.4500 0.2100
vn -0.9029 0.4299 0.0000
vn -0.9029 0.4299 0.0000
vn -0.9029 0.4299 0.0000
f 139//139 140//140 141//141
v 0.1000 0.2400 0.0200
v 0.1200 0.2400 0.0200
v 0.2000 0.4500 0.2100
vn 0.0000 -0.6709 0.7415
vn 0.0000 -0.6709 0.7415
vn 0.0000 -0.6709 0.7415
f 142//142 143//143 144//144
v 0.2100 0.4500 0.2000
v 0.2000 0.4500 0.2000
v 0.2000 0.4500 0.2100
vn 0.0000 1.0000 0.0000
vn 0.0000 1.0000 0.0000
vn 0.0000 1.0000 0.0000
f 145//145 146//146 147//147
v 0.1200 0.2400 0.0200
v 0.2100 0.4500 0.2000
v 0.2100 0.4500 0.2100
vn 0.9191 -0.3939 0.0000
vn 0.9191 -0.3939 0.0000
vn 0.9191 -0.3939 0.0000
f 148//148 149//149 150//150
v 0.2100 0.4500 0.2000
v 0.2000 0.4500 0.2100
v 0.2100 0.4500 0.2100
vn 0.0000 1.0000 -0.0000
vn 0.0000 1.0000 -0.0000
vn 0.0000 1.0000 -0.0000
f 151//151 152//152 153//153
v 0.2000 0.4500 0.2100
v 0.1200 0.2400 0.0200
v 0.2100 0.4500 0.2100
vn 0.0000 -0.6709 0.7415
vn 0.0000 -0.6709 0.7415
vn 0.0000 -0.6709 0.7415
f 154//154 155//155 156//156
v 0.0950 -0.2800 -0.1400
v -0.0950 -0.2800 -0.1400
v -0.1100 -0.2650 -0.1400
vn 0.0000 0.0000 -1.0000
vn 0.0000 0.0000 -1.0000
vn 0.0000 0.0000 -1.0000
f 157//157 158//158 159//159
v 0.0950 -0.2800 -0.1400
v 0.0950 -0.2800 0.1400
v -0.0950 -0.2800 -0.1400
vn 0.0000 -1.0000 0.0000
vn 0.0000 -1.0000 0.0000
vn 0.0000 -1.0000 0.0000
f 160//160 161//161 162//162
v 0.0950 -0.2800 -0.1400
v -0.1100 -0.2650 -0.1400
v -0.1100 -0.2150 -0.1400
vn 0.0000 0.0000 -1.0000
vn 0.0000 0.0000 -1.0000
vn 0.0000 0.0000 -1.0000
f 163//163 164//164 165//165
v 0.0950 -0.2800 -0.1400
v -0.1100 -0.2150 -0.1400
v -0.0950 -0.2000 -0.1400
vn 0.0000 0.0000 -1.0000
vn 0.0000 0.0000 -1.0000
vn 0.0000 0.0000 -1.0000
f 166//166 167//167 168//168
v 0.0950 -0.2800 -0.1400
v -0.0950 -0.2000 -0.1400
v 0.0950 -0.2000 -0.1400
vn 0.0000 0.0000 -1.0000
vn 0.0000 0.0000 -1.0000
vn 0.0000 0.0000 -1.0000
f 169//169 170//170 171//171
v 0.0950 -0.2800 -0.1400
v 0.0950 -0.2000 -0.1400
v 0.1100 -0.2150 -0.1400
vn 0.0000 0.0000 -1.0000
vn 0.0000 0.0000 -1.0000
vn 0.0000 0.0000 -1.0000
f 172//172 173//173 174//174
v 0.0950 -0.2800 0.1400
v 0.0950 -0.2800 -0.1400
v 0.1100 -0.2650 -0.1400
vn 0.7071 -0.7071 0.0000
vn 0.7071 -0.7071 0.0000
vn 0.7071 -0.7071 0.0000
f 175//175 176//176 177//177
v 0.0950 -0.2800 -0.1400
v 0.1100 -0.2150 -0.1400
v 0.1100 -0.2650 -0.1400
vn 0.0000 0.0000 -1.0000
vn 0.0000 0.0000 -1.0000
vn 0.0000 0.0000 -1.0000
f 178//178 179//179 180//180
v -0.0950 -0.2800 -0.1400
v 0.0950 -0.2800 0.1400
v -0.0950 -0.2800 0.1400
vn 0.0000 -1.0000 0.0000
vn 0.0000 -1.0000 0.0000
vn 0.0000 -1.0000 0.0000
f 181//181 182//182 183//183
v -0.1100 -0.2650 -0.1400
v -0.0950 -0.2800 -0.1400
v -0.0950 -0.2800 0.1400
vn -0.7071 -0.7071 0.0000
vn -0.7071 -0.7071 0.0000
vn -0.7071 -0.7071 0.0000
f 184//184 185//185 186//186
v -0.1100 -0.2150 -0.1400
v -0.1100 -0.2650 -0.1400
v -0.1100 -0.2650 0.1400
vn -1.0000 0.0000 0.0000
vn -1.0000 0.0000 0.0000
vn -1.0000 0.0000 0.0000
f 187//187 188//188 189//189
v -0.1100 -0.2650 -0.1400
v -0.0950 -0.2800 0.1400
v -0.1100 -0.2650 0.1400
vn -0.7071 -0.7071 0.0000
vn -0.7071 -0.7071 0.0000
vn -0.7071 -0.7071 0.0000
f 190//190 191//191 192//192
v -0.0950 -0.2800 0.1400
v 0.0950 -0.2800 0.1400
v -0.1100 -0.2650 0.1400
vn 0.0000 -0.0000 1.0000
vn 0.0000 -0.0000 1.0000
vn 0.0000 -0.0000 1.0000
f 193//193 194//194 195//195
v -0.1100 -0.2650 0.1400
v 0.0950 -0.2800 0.1400
v -0.1100 -0.2150 0.1400
vn -0.0000 0.0000 1.0000
vn -0.0000 0.0000 1.0000
vn -0.0000 0.0000 1.0000
f 196//196 197//197 198//198
v -0.0950 -0.2000 -0.1400
v -0.1100 -0.2150 -0.1400
v -0.1100 -0.2150 0.1400
vn -0.7071 0.7071 0.0000
vn -0.7071 0.7071 0.0000
vn -0.7071 0.7071 0.0000
f 199//199 200//200 201//201
v -0.1100 -0.2150 -0.1400
v -0.1100 -0.2650 0.1400
v -0.1100 -0.2150 0.1400
vn -1.0000 0.0000 0.0000
vn -1.0000 0.0000 0.0000
vn -1.0000 0.0000 0.0000
f 202//202 203//203 204//204
v -0.1100 -0.2150 0.1400
v 0.0950 -0.2800 0.1400
v -0.0950 -0.2000 0.1400
vn -0.0000 0.0000 1.0000
vn -0.0000 0.0000 1.0000
vn -0.0000 0.0000 1.0000
f 205//205 206//206 207//207
v 0.0950 -0.2000 -0.1400
v -0.0950 -0.2000 -0.1400
v -0.0950 -0.2000 0.1400
vn 0.0000 1.0000 0.0000
vn 0.0000 1.0000 0.0000
vn 0.0000 1.0000 0.0000
f 208//208 209//209 210//210
v -0.0950 -0.2000 -0.1400
v -0.1100 -0.2150 0.1400
v -0.0950 -0.2000 0.1400
vn -0.7071 0.7071 0.0000
vn -0.7071 0.7071 0.0000
vn -0.7071 0.7071 0.0000
f 211//211 212//212 213//213
v 0.1100 -0.2150 -0.1400
v 0.0950 -0.2000 -0.1400
v 0.0950 -0.2000 0.1400
vn 0.7071 0.7071 0.0000
vn 0.7071 0.7071 0.0000
vn 0.7071 0.7071 0.0000
f 214//214 215//215 216//216
v 0.0950 -0.2000 -0.1400
v -0.0950 -0.2000 0.1400
v 0.0950 -0.2000 0.1400
vn 0.0000 1.0000 -0.0000
vn 0.0000 1.0000 -0.0000
vn 0.0000 1.0000 -0.0000
f 217//217 218//218 219//219
v -0.0950 -0.2000 0.1400
v 0.0950 -0.2800 0.1400
v 0.0950 -0.2000 0.1400
vn -0.0000 0.0000 1.0000
vn -0.0000 0.0000 1.0000
vn -0.0000 0.0000 1.0000
f 220//220 221//221 222//222
v 0.1100 -0.2650 -0.1400
v 0.1100 -0.2150 -0.1400
v 0.1100 -0.2150 0.1400
vn 1.0000 0.0000 0.0000
vn 1.0000 0.0000 0.0000
vn 1.0000 0.0000 0.0000
f 223//223 224//224 225//225
v 0.1100 -0.2150 -0.1400
v 0.0950 -0.2000 0.1400
v 0.1100 -0.2150 0.1400
vn 0.7071 0.7071 -0.0000
vn 0.7071 0.7071 -0.0000
vn 0.7071 0.7071 -0.0000
f 226//226 227//227 228//228
v 0.0950 -0.2000 0.1400
v 0.0950 -0.2800 0.1400
v 0.1100 -0.2150 0.1400
vn 0.0000 0.0000 1.0000
vn 0.0000 0.0000 1.0000
vn 0.0000 0.0000 1.0000
f 229//229 230//230 231//231
v 0.0950 -0.2800 0.1400
v 0.1100 -0.2650 -0.1400
v 0.1100 -0.2650 0.1400
vn 0.7071 -0.7071 0.0000
vn 0.7071 -0.7071 0.0000
vn 0.7071 -0.7071 0.0000
f 232//232 233//233 234//234
v 0.1100 -0.2650 -0.1400
v 0.1100 -0.2150 0.1400
v 0.1100 -0.2650 0.1400
vn 1.0000 0.0000 0.0000
vn 1.0000 0.0000 0.0000
vn 1.0000 0.0000 0.0000
f 235//235 236//236 237//237
v 0.1100 -0.2150 0.1400
v 0.0950 -0.2800 0.1400
v 0.1100 -0.2650 0.1400
vn 0.0000 0.0000 1.0000
vn 0.0000 0.0000 1.0000
vn 0.0000 0.0000 1.0000
f 238//238 239//239 240//240
g gray
usemtl gray
v 0.1200 -0.1200 0.3200
v -0.0000 -0.1300 0.5000
v -0.1200 -0.1200 0.3200
vn -0.0000 -0.9985 -0.0555
vn -0.0000 -0.9985 -0.0555
vn -0.0000 -0.9985 -0.0555
f 241//241 242//242 243//243
v 0.1200 -0.1200 0.3200
v -0.1200 -0.1200 0.3200
v 0.0800 -0.0500 0.3800
vn 0.0000 0.6508 -0.7593
vn 0.0000 0.6508 -0.7593
vn 0.0000 0.6508 -0.7593
f 244//244 245//245 246//246
v 0.1200 -0.1200 0.3200
v 0.0800 -0.0500 0.3800
v -0.0000 -0.1300 0.5000
vn 0.8321 0.0000 0.5547
vn 0.8321 0.0000 0.5547
vn 0.8321 0.0000 0.5547
f 247//247 248//248 249//249
v -0.1200 -0.1200 0.3200
v -0.0000 -0.1300 0.5000
v -0.0800 -0.0500 0.3800
vn -0.8321 0.0000 0.5547
vn -0.8321 0.0000 0.5547
vn -0.8321 0.0000 0.5547
f 250//250 251//251 252//252
v 0.0800 -0.0500 0.3800
v -0.1200 -0.1200 0.3200
v -0.0800 -0.0500 0.3800
vn 0.0000 0.6508 -0.7593
vn 0.0000 0.6508 -0.7593
vn 0.0000 0.6508 -0.7593
f 253//253 254//254 255//255
v -0.0000 -0.1300 0.5000
v 0.0800 -0.0500 0.3800
v -0.0000 -0.0600 0.5000
vn 0.8321 -0.0000 0.5547
vn 0.8321 -0.0000 0.5547
vn 0.8321 -0.0000 0.5547
f 256//256 257//257 258//258
v 0.0800 -0.0500 0.3800
v -0.0800 -0.0500 0.3800
v -0.0000 -0.0600 0.5000
vn 0.0000 0.9965 0.0830
vn 0.0000 0.9965 0.0830
vn 0.0000 0.9965 0.0830
f 259//259 260//260 261//261
v -0.0800 -0.0500 0.3800
v -0.0000 -0.1300 0.5000
v -0.0000 -0.0600 0.5000
vn -0.8321 0.0000 0.5547
vn -0.8321 0.0000 0.5547
vn -0.8321 0.0000 0.5547
f 262//262 263//263 264//264
g hblue
usemtl hblue
v 0.1800 -0.1600 -0.4000
v -0.1800 -0.1600 -0.4000
v -0.3000 -0.0400 -0.4000
vn 0.0000 0.0000 -1.0000
vn 0.0000 0.0000 -1.0000
vn 0.0000 0.0000 -1.0000
f 265//265 266//266 267//267
v 0.1800 -0.1600 -0.4000
v 0.1700 -0.1700 0.2500
v -0.1800 -0.1600 -0.4000
vn -0.0000 -0.9999 -0.0154
vn -0.0000 -0.9999 -0.0154
vn -0.0000 -0.9999 -0.0154
f 268//268 269//269 270//270
v 0.1800 -0.1600 -0.4000
v -0.3000 -0.0400 -0.4000
v -0.3000 0.1200 -0.4000
vn 0.0000 0.0000 -1.0000
vn 0.0000 0.0000 -1.0000
vn 0.0000 0.0000 -1.0000
f 271//271 272//272 273//273
v 0.1800 -0.1600 -0.4000
v -0.3000 0.1200 -0.4000
v -0.1800 0.2400 -0.4000
vn 0.0000 0.0000 -1.0000
vn 0.0000 0.0000 -1.0000
vn 0.0000 0.0000 -1.0000
f 274//274 275//275 276//276
v 0.1800 -0.1600 -0.4000
v -0.1800 0.2400 -0.4000
v 0.1800 0.2400 -0.4000
vn 0.0000 0.0000 -1.0000
vn 0.0000 0.0000 -1.0000
vn 0.0000 0.0000 -1.0000
f 277//277 278//278 279//279
v 0.1800 -0.1600 -0.4000
v 0.1800 0.2400 -0.4000
v 0.3000 0.1200 -0.4000
vn 0.0000 0.0000 -1.0000
vn 0.0000 0.0000 -1.0000
vn 0.0000 0.0000 -1.0000
f 280//280 281//281 282//282
v 0.1700 -0.1700 0.2500
v 0.1800 -0.1600 -0.4000
v 0.3000 -0.0400 -0.4000
vn 0.7071 -0.7071 -0.0000
vn 0.7071 -0.7071 -0.0000
vn 0.7071 -0.7071 -0.0000
f 283//283 284//284 285//285
v 0.1800 -0.1600 -0.4000
v 0.3000 0.1200 -0.4000
v 0.3000 -0.0400 -0.4000
vn 0.0000 0.0000 -1.0000
vn 0.0000 0.0000 -1.0000
vn 0.0000 0.0000 -1.0000
f 286//286 287//287 288//288
v -0.1800 -0.1600 -0.4000
v 0.1700 -0.1700 0.2500
v -0.1700 -0.1700 0.2500
vn 0.0000 -0.9999 -0.0154
vn 0.0000 -0.9999 -0.0154
vn 0.0000 -0.9999 -0.0154
f 289//289 290//290 291//291
v -0.3000 -0.0400 -0.4000
v -0.1800 -0.1600 -0.4000
v -0.1700 -0.1700 0.2500
vn -0.7071 -0.7071 -0.0000
vn -0.7071 -0.7071 -0.0000
vn -0.7071 -0.7071 -0.0000
f 292//292 293//293 294//294
v -0.3000 0.1200 -0.4000
v -0.3000 -0.0400 -0.4000
v -0.3000 -0.0400 0.2500
vn -1.0000 0.0000 0.0000
vn -1.0000 0.0000 0.0000
vn -1.0000 0.0000 0.0000
f 295//295 296//296 297//297
v -0.3000 -0.0400 -0.4000
v -0.1700 -0.1700 0.2500
v -0.3000 -0.0400 0.2500
vn -0.7071 -0.7071 0.0000
vn -0.7071 -0.7071 0.0000
vn -0.7071 -0.7071 0.0000
f 298//298 299//299 300//300
v -0.1800 0.2400 -0.4000
v -0.3000 0.1200 -0.4000
v -0.3000 0.1400 0.2500
vn -0.7069 0.7069 -0.0218
vn -0.7069 0.7069 -0.0218
vn -0.7069 0.7069 -0.0218
f 301//301 302//302 303//303
v -0.3000 0.1200 -0.4000
v -0.3000 -0.0400 0.2500
v -0.3000 0.1400 0.2500
vn -1.0000 0.0000 0.0000
vn -1.0000 0.0000 0.0000
vn -1.0000 0.0000 0.0000
f 304//304 305//305 306//306
v 0.1800 0.2400 -0.4000
v -0.1800 0.2400 -0.4000
v -0.1700 0.2700 0.2500
vn 0.0000 0.9989 -0.0461
vn 0.0000 0.9989 -0.0461
vn 0.0000 0.9989 -0.0461
f 307//307 308//308 309//309
v -0.1800 0.2400 -0.4000
v -0.3000 0.1400 0.2500
v -0.1700 0.2700 0.2500
vn -0.7069 0.7069 -0.0218
vn -0.7069 0.7069 -0.0218
vn -0.7069 0.7069 -0.0218
f 310//310 311//311 312//312
v 0.3000 0.1200 -0.4000
v 0.1800 0.2400 -0.4000
v 0.1700 0.2700 0.2500
vn 0.7069 0.7069 -0.0218
vn 0.7069 0.7069 -0.0218
vn 0.7069 0.7069 -0.0218
f 313//313 314//314 315//315
v 0.1800 0.2400 -0.4000
v -0.1700 0.2700 0.2500
v 0.1700 0.2700 0.2500
vn 0.0000 0.9989 -0.0461
vn 0.0000 0.9989 -0.0461
vn 0.0000 0.9989 -0.0461
f 316//316 317//317 318//318
v 0.3000 -0.0400 -0.4000
v 0.3000 0.1200 -0.4000
v 0.3000 0.1400 0.2500
vn 1.0000 0.0000 0.0000
vn 1.0000 0.0000 0.0000
vn 1.0000 0.0000 0.0000
f 319//319 320//320 321//321
v 0.3000 0.1200 -0.4000
v 0.1700 0.2700 0.2500
v 0.3000 0.1400 0.2500
vn 0.7069 0.7069 -0.0218
vn 0.7069 0.7069 -0.0218
vn 0.7069 0.7069 -0.0218
f 322//322 323//323 324//324
v 0.1700 -0.1700 0.2500
v 0.3000 -0.0400 -0.4000
v 0.3000 -0.0400 0.2500
vn 0.7071 -0.7071 0.0000
vn 0.7071 -0.7071 0.0000
vn 0.7071 -0.7071 0.0000
f 325//325 326//326 327//327
v 0.3000 -0.0400 -0.4000
v 0.3000 0.1400 0.2500
v 0.3000 -0.0400 0.2500
vn 1.0000 0.0000 0.0000
vn 1.0000 0.0000 0.0000
vn 1.0000 0.0000 0.0000
f 328//328 329//329 330//330
v -0.1700 -0.1700 0.2500
v 0.1700 -0.1700 0.2500
v 0.1200 -0.1200 0.4600
vn 0.0000 -0.9728 0.2316
vn 0.0000 -0.9728 0.2316
vn 0.0000 -0.9728 0.2316
f 331//331 332//332 333//333
v 0.1700 -0.1700 0.2500
v 0.3000 -0.0400 0.2500
v 0.1200 -0.1200 0.4600
vn 0.6701 -0.6701 0.3191
vn 0.6701 -0.6701 0.3191
vn 0.6701 -0.6701 0.3191
f 334//334 335//335 336//336
v -0.3000 -0.0400 0.2500
v -0.1700 -0.1700 0.2500
v -0.1200 -0.1200 0.4600
vn -0.6701 -0.6701 0.3191
vn -0.6701 -0.6701 0.3191
vn -0.6701 -0.6701 0.3191
f 337//337 338//338 339//339
v -0.1700 -0.1700 0.2500
v 0.1200 -0.1200 0.4600
v -0.1200 -0.1200 0.4600
vn 0.0000 -0.9728 0.2316
vn 0.0000 -0.9728 0.2316
vn 0.0000 -0.9728 0.2316
f 340//340 341//341 342//342
v -0.3000 0.1400 0.2500
v -0.3000 -0.0400 0.2500
v -0.2000 -0.0400 0.4600
vn -0.9029 0.0000 0.4299
vn -0.9029 0.0000 0.4299
vn -0.9029 0.0000 0.4299
f 343//343 344//344 345//345
v -0.3000 -0.0400 0.2500
v -0.1200 -0.1200 0.4600
v -0.2000 -0.0400 0.4600
vn -0.6701 -0.6701 0.3191
vn -0.6701 -0.6701 0.3191
vn -0.6701 -0.6701 0.3191
f 346//346 347//347 348//348
v -0.1200 -0.1200 0.4600
v 0.1200 -0.1200 0.4600
v -0.2000 -0.0400 0.4600
vn 0.0000 -0.0000 1.0000
vn 0.0000 -0.0000 1.0000
vn 0.0000 -0.0000 1.0000
f 349//349 350//350 351//351
v -0.2000 -0.0400 0.4600
v 0.1200 -0.1200 0.4600
v -0.2000 0.1000 0.4600
vn -0.0000 0.0000 1.0000
vn -0.0000 0.0000 1.0000
vn -0.0000 0.0000 1.0000
f 352//352 353//353 354//354
v -0.1700 0.2700 0.2500
v -0.3000 0.1400 0.2500
v -0.2000 0.1000 0.4600
vn -0.6396 0.6396 0.4264
vn -0.6396 0.6396 0.4264
vn -0.6396 0.6396 0.4264
f 355//355 356//356 357//357
v -0.3000 0.1400 0.2500
v -0.2000 -0.0400 0.4600
v -0.2000 0.1000 0.4600
vn -0.9029 0.0000 0.4299
vn -0.9029 0.0000 0.4299
vn -0.9029 0.0000 0.4299
f 358//358 359//359 360//360
v 0.1700 0.2700 0.2500
v -0.1700 0.2700 0.2500
v -0.1200 0.1800 0.4600
vn 0.0000 0.9191 0.3939
vn 0.0000 0.9191 0.3939
vn 0.0000 0.9191 0.3939
f 361//361 362//362 363//363
v -0.1700 0.2700 0.2500
v -0.2000 0.1000 0.4600
v -0.1200 0.1800 0.4600
vn -0.6396 0.6396 0.4264
vn -0.6396 0.6396 0.4264
vn -0.6396 0.6396 0.4264
f 364//364 365//365 366//366
v -0.2000 0.1000 0.4600
v 0.1200 -0.1200 0.4600
v -0.1200 0.1800 0.4600
vn -0.0000 0.0000 1.0000
vn -0.0000 0.0000 1.0000
vn -0.0000 0.0000 1.0000
f 367//367 368//368 369//369
v 0.3000 0.1400 0.2500
v 0.1700 0.2700 0.2500
v 0.1200 0.1800 0.4600
vn 0.6396 0.6396 0.4264
vn 0.6396 0.6396 0.4264
vn 0.6396 0.6396 0.4264
f 370//370 371//371 372//372
v 0.1700 0.2700 0.2500
v -0.1200 0.1800 0.4600
v 0.1200 0.1800 0.4600
vn 0.0000 0.9191 0.3939
vn 0.0000 0.9191 0.3939
vn 0.0000 0.9191 0.3939
f 373//373 374//374 375//375
v -0.1200 0.1800 0.4600
v 0.1200 -0.1200 0.4600
v 0.1200 0.1800 0.4600
vn -0.0000 0.0000 1.0000
vn -0.0000 0.0000 1.0000
vn -0.0000 0.0000 1.0000
f 376//376 377//377 378//378
v 0.3000 -0.0400 0.2500
v 0.3000 0.1400 0.2500
v 0.2000 0.1000 0.4600
vn 0.9029 -0.0000 0.4299
vn 0.9029 -0.0000 0.4299
vn 0.9029 -0.0000 0.4299
f 379//379 380//380 381//381
v 0.3000 0.1400 0.2500
v 0.1200 0.1800 0.4600
v 0.2000 0.1000 0.4600
vn 0.6396 0.6396 0.4264
vn 0.6396 0.6396 0.4264
vn 0.6396 0.6396 0.4264
f 382//382 383//383 384//384
v 0.1200 0.1800 0.4600
v 0.1200 -0.1200 0.4600
v 0.2000 0.1000 0.4600
vn 0.0000 0.0000 1.0000
vn 0.0000 0.0000 1.0000
vn 0.0000 0.0000 1.0000
f 385//385 386//386 387//387
v 0.1200 -0.1200 0.4600
v 0.3000 -0.0400 0.2500
v 0.2000 -0.0400 0.4600
vn 0.6701 -0.6701 0.3191
vn 0.6701 -0.6701 0.3191
vn 0.6701 -0.6701 0.3191
f 388//388 389//389 390//390
v 0.3000 -0.0400 0.2500
v 0.2000 0.1000 0.4600
v 0.2000 -0.0400 0.4600
vn 0.9029 0.0000 0.4299
vn 0.9029 0.0000 0.4299
vn 0.9029 0.0000 0.4299
f 391//391 392//392 393//393
v 0.2000 0.1000 0.4600
v 0.1200 -0.1200 0.4600
v 0.2000 -0.0400 0.4600
vn 0.0000 0.0000 1.0000
vn 0.0000 0.0000 1.0000
vn 0.0000 0.0000 1.0000
f 394//394 395//395 396//396
g light
usemtl light
v -0.3850 0.0300 -0.1200
v -0.3950 0.0300 -0.1200
v -0.3950 0.1300 -0.1200
vn 0.0000 0.0000 -1.0000
vn 0.0000 0.0000 -1.0000
vn 0.0000 0.0000 -1.0000
f 397//397 398//398 399//399
v -0.3850 0.0300 -0.1200
v -0.3850 0.0400 0.1800
v -0.3950 0.0300 -0.1200
vn 0.0000 -0.9994 0.0333
vn 0.0000 -0.9994 0.0333
vn 0.0000 -0.9994 0.0333
f 400//400 401//401 402//402
v -0.3850 0.0300 -0.1200
v -0.3950 0.1300 -0.1200
v -0.3850 0.1300 -0.1200
vn 0.0000 0.0000 -1.0000
vn 0.0000 0.0000 -1.0000
vn 0.0000 0.0000 -1.0000
f 403//403 404//404 405//405
v -0.3850 0.0400 0.1800
v -0.3850 0.0300 -0.1200
v -0.3850 0.1300 -0.1200
vn 1.0000 0.0000 0.0000
vn 1.0000 0.0000 0.0000
vn 1.0000 0.0000 0.0000
f 406//406 407//407 408//408
v -0.3950 0.0300 -0.1200
v -0.3850 0.0400 0.1800
v -0.3950 0.0400 0.1800
vn 0.0000 -0.9994 0.0333
vn 0.0000 -0.9994 0.0333
vn 0.0000 -0.9994 0.0333
f 409//409 410//410 411//411
v -0.3950 0.1300 -0.1200
v -0.3950 0.0300 -0.1200
v -0.3950 0.0400 0.1800
vn -1.0000 0.0000 0.0000
vn -1.0000 0.0000 0.0000
vn -1.0000 0.0000 0.0000
f 412//412 413//413 414//414
v -0.3850 0.1300 -0.1200
v -0.3950 0.1300 -0.1200
v -0.3950 0.1200 0.1800
vn 0.0000 0.9994 0.0333
vn 0.0000 0.9994 0.0333
vn 0.0000 0.9994 0.0333
f 415//415 416//416 417//417
v -0.3950 0.1300 -0.1200
v -0.3950 0.0400 0.1800
v -0.3950 0.1200 0.1800
vn -1.0000 0.0000 0.0000
vn -1.0000 0.0000 0.0000
vn -1.0000 0.0000 0.0000
f 418//418 419//419 420//420
v -0.3950 0.0400 0.1800
v -0.3850 0.0400 0.1800
v -0.3950 0.1200 0.1800
vn 0.0000 0.0000 1.0000
vn 0.0000 0.0000 1.0000
vn 0.0000 0.0000 1.0000
f 421//421 422//422 423//423
v -0.3850 0.0400 0.1800
v -0.3850 0.1300 -0.1200
v -0.3850 0.1200 0.1800
vn 1.0000 -0.0000 0.0000
vn 1.0000 -0.0000 0.0000
vn 1.0000 -0.0000 0.0000
f 424//424 425//425 426//426
v -0.3850 0.1300 -0.1200
v -0.3950 0.1200 0.1800
v -0.3850 0.1200 0.1800
vn 0.0000 0.9994 0.0333
vn 0.0000 0.9994 0.0333
vn 0.0000 0.9994 0.0333
f 427//427 428//428 429//429
v -0.3950 0.1200 0.1800
v -0.3850 0.0400 0.1800
v -0.3850 0.1200 0.1800
vn -0.0000 0.0000 1.0000
vn -0.0000 0.0000 1.0000
vn -0.0000 0.0000 1.0000
f 430//430 431//431 432//432
v 0.3850 0.0300 -0.1200
v 0.3950 0.1300 -0.1200
v 0.3950 0.0300 -0.1200
vn 0.0000 0.0000 -1.0000
vn 0.0000 0.0000 -1.0000
vn 0.0000 0.0000 -1.0000
f 433//433 434//434 435//435
v 0.3850 0.0300 -0.1200
v 0.3950 0.0300 -0.1200
v 0.3850 0.0400 0.1800
vn 0.0000 -0.9994 0.0333
vn 0.0000 -0.9994 0.0333
vn 0.0000 -0.9994 0.0333
f 436//436 437//437 438//438
v 0.3850 0.0300 -0.1200
v 0.3850 0.0400 0.1800
v 0.3850 0.1300 -0.1200
vn -1.0000 0.0000 0.0000
vn -1.0000 0.0000 0.0000
vn -1.0000 0.0000 0.0000
f 439//439 440//440 441//441
v 0.3950 0.1300 -0.1200
v 0.3850 0.0300 -0.1200
v 0.3850 0.1300 -0.1200
vn -0.0000 0.0000 -1.0000
vn -0.0000 0.0000 -1.0000
vn -0.0000 0.0000 -1.0000
f 442//442 443//443 444//444
v 0.3950 0.0300 -0.1200
v 0.3950 0.1300 -0.1200
v 0.3950 0.0400 0.1800
vn 1.0000 0.0000 0.0000
vn 1.0000 0.0000 0.0000
vn 1.0000 0.0000 0.0000
f 445//445 446//446 447//447
v 0.3850 0.0400 0.1800
v 0.3950 0.0300 -0.1200
v 0.3950 0.0400 0.1800
vn 0.0000 -0.9994 0.0333
vn 0.0000 -0.9994 0.0333
vn 0.0000 -0.9994 0.0333
f 448//448 449//449 450//450
v 0.3950 0.1300 -0.1200
v 0.3850 0.1300 -0.1200
v 0.3950 0.1200 0.1800
vn 0.0000 0.9994 0.0333
vn 0.0000 0.9994 0.0333
vn 0.0000 0.9994 0.0333
f 451//451 452//452 453//453
v 0.3850 0.0400 0.1800
v 0.3950 0.0400 0.1800
v 0.3950 0.1200 0.1800
vn 0.0000 0.0000 1.0000
vn 0.0000 0.0000 1.0000
vn 0.0000 0.0000 1.0000
f 454//454 455//455 456//456
v 0.3950 0.0400 0.1800
v 0.3950 0.1300 -0.1200
v 0.3950 0.1200 0.1800
vn 1.0000 -0.0000 0.0000
vn 1.0000 -0.0000 0.0000
vn 1.0000 -0.0000 0.0000
f 457//457 458//458 459//459
v 0.3850 0.1300 -0.1200
v 0.3850 0.0400 0.1800
v 0.3850 0.1200 0.1800
vn -1.0000 0.0000 0.0000
vn -1.0000 0.0000 0.0000
vn -1.0000 0.0000 0.0000
f 460//460 461//461 462//462
v 0.3850 0.0400 0.1800
v 0.3950 0.1200 0.1800
v 0.3850 0.1200 0.1800
vn 0.0000 0.0000 1.0000
vn 0.0000 0.0000 1.0000
vn 0.0000 0.0000 1.0000
f 463//463 464//464 465//465
v 0.3950 0.1200 0.1800
v 0.3850 0.1300 -0.1200
v 0.3850 0.1200 0.1800
vn 0.0000 0.9994 0.0333
vn 0.0000 0.9994 0.0333
vn 0.0000 0.9994 0.0333
f 466//466 467//467 468//468
g navy
usemtl navy
v -0.3200 -0.0200 -0.2000
v -0.3600 -0.0200 -0.2000
v -0.3900 0.0100 -0.2000
vn 0.0000 0.0000 -1.0000
vn 0.0000 0.0000 -1.0000
vn 0.0000 0.0000 -1.0000
f 469//469 470//470 471//471
v -0.3200 -0.0200 -0.2000
v -0.3200 0.0000 0.2500
v -0.3600 -0.0200 -0.2000
vn 0.0000 -0.9990 0.0444
vn 0.0000 -0.9990 0.0444
vn 0.0000 -0.9990 0.0444
f 472//472 473//473 474//474
v -0.3200 -0.0200 -0.2000
v -0.3900 0.0100 -0.2000
v -0.3900 0.1500 -0.2000
vn 0.0000 0.0000 -1.0000
vn 0.0000 0.0000 -1.0000
vn 0.0000 0.0000 -1.0000
f 475//475 476//476 477//477
v -0.3200 -0.0200 -0.2000
v -0.3900 0.1500 -0.2000
v -0.3600 0.1800 -0.2000
vn 0.0000 0.0000 -1.0000
vn 0.0000 0.0000 -1.0000
vn 0.0000 0.0000 -1.0000
f 478//478 479//479 480//480
v -0.3200 -0.0200 -0.2000
v -0.3600 0.1800 -0.2000
v -0.3200 0.1800 -0.2000
vn 0.0000 0.0000 -1.0000
vn 0.0000 0.0000 -1.0000
vn 0.0000 0.0000 -1.0000
f 481//481 482//482 483//483
v -0.3200 -0.0200 -0.2000
v -0.3200 0.1800 -0.2000
v -0.2900 0.1500 -0.2000
vn 0.0000 0.0000 -1.0000
vn 0.0000 0.0000 -1.0000
vn 0.0000 0.0000 -1.0000
f 484//484 485//485 486//486
v -0.3200 0.0000 0.2500
v -0.3200 -0.0200 -0.2000
v -0.2900 0.0100 -0.2000
vn 0.7068 -0.7068 0.0314
vn 0.7068 -0.7068 0.0314
vn 0.7068 -0.7068 0.0314
f 487//487 488//488 489//489
v -0.3200 -0.0200 -0.2000
v -0.2900 0.1500 -0.2000
v -0.2900 0.0100 -0.2000
vn 0.0000 0.0000 -1.0000
vn 0.0000 0.0000 -1.0000
vn 0.0000 0.0000 -1.0000
f 490//490 491//491 492//492
v -0.3600 -0.0200 -0.2000
v -0.3200 0.0000 0.2500
v -0.3600 0.0000 0.2500
vn 0.0000 -0.9990 0.0444
vn 0.0000 -0.9990 0.0444
vn 0.0000 -0.9990 0.0444
f 493//493 494//494 495//495
v -0.3900 0.0100 -0.2000
v -0.3600 -0.0200 -0.2000
v -0.3600 0.0000 0.2500
vn -0.7068 -0.7068 0.0314
vn -0.7068 -0.7068 0.0314
vn -0.7068 -0.7068 0.0314
f 496//496 497//497 498//498
v -0.3900 0.1500 -0.2000
v -0.3900 0.0100 -0.2000
v -0.3800 0.0200 0.2500
vn -0.9998 0.0000 0.0222
vn -0.9998 0.0000 0.0222
vn -0.9998 0.0000 0.0222
f 499//499 500//500 501//501
v -0.3900 0.0100 -0.2000
v -0.3600 0.0000 0.2500
v -0.3800 0.0200 0.2500
vn -0.7068 -0.7068 0.0314
vn -0.7068 -0.7068 0.0314
vn -0.7068 -0.7068 0.0314
f 502//502 503//503 504//504
v -0.3600 0.0000 0.2500
v -0.3200 0.0000 0.2500
v -0.3800 0.0200 0.2500
vn 0.0000 -0.0000 1.0000
vn 0.0000 -0.0000 1.0000
vn 0.0000 -0.0000 1.0000
f 505//505 506//506 507//507
v -0.3800 0.0200 0.2500
v -0.3200 0.0000 0.2500
v -0.3800 0.1400 0.2500
vn -0.0000 0.0000 1.0000
vn -0.0000 0.0000 1.0000
vn -0.0000 0.0000 1.0000
f 508//508 509//509 510//510
v -0.3600 0.1800 -0.2000
v -0.3900 0.1500 -0.2000
v -0.3800 0.1400 0.2500
vn -0.7068 0.7068 0.0314
vn -0.7068 0.7068 0.0314
vn -0.7068 0.7068 0.0314
f 511//511 512//512 513//513
v -0.3900 0.1500 -0.2000
v -0.3800 0.0200 0.2500
v -0.3800 0.1400 0.2500
vn -0.9998 0.0000 0.0222
vn -0.9998 0.0000 0.0222
vn -0.9998 0.0000 0.0222
f 514//514 515//515 516//516
v -0.3800 0.1400 0.2500
v -0.3200 0.0000 0.2500
v -0.3600 0.1600 0.2500
vn -0.0000 0.0000 1.0000
vn -0.0000 0.0000 1.0000
vn -0.0000 0.0000 1.0000
f 517//517 518//518 519//519
v -0.3200 0.1800 -0.2000
v -0.3600 0.1800 -0.2000
v -0.3600 0.1600 0.2500
vn 0.0000 0.9990 0.0444
vn 0.0000 0.9990 0.0444
vn 0.0000 0.9990 0.0444
f 520//520 521//521 522//522
v -0.3600 0.1800 -0.2000
v -0.3800 0.1400 0.2500
v -0.3600 0.1600 0.2500
vn -0.7068 0.7068 0.0314
vn -0.7068 0.7068 0.0314
vn -0.7068 0.7068 0.0314
f 523//523 524//524 525//525
v -0.3600 0.1600 0.2500
v -0.3200 0.0000 0.2500
v -0.3200 0.1600 0.2500
vn -0.0000 0.0000 1.0000
vn -0.0000 0.0000 1.0000
vn -0.0000 0.0000 1.0000
f 526//526 527//527 528//528
v -0.2900 0.1500 -0.2000
v -0.3200 0.1800 -0.2000
v -0.3200 0.1600 0.2500
vn 0.7068 0.7068 0.0314
vn 0.7068 0.7068 0.0314
vn 0.7068 0.7068 0.0314
f 529//529 530//530 531//531
v -0.3200 0.1800 -0.2000
v -0.3600 0.1600 0.2500
v -0.3200 0.1600 0.2500
vn 0.0000 0.9990 0.0444
vn 0.0000 0.9990 0.0444
vn 0.0000 0.9990 0.0444
f 532//532 533//533 534//534
v -0.2900 0.0100 -0.2000
v -0.2900 0.1500 -0.2000
v -0.3000 0.1400 0.2500
vn 0.9998 -0.0000 0.0222
vn 0.9998 -0.0000 0.0222
vn 0.9998 -0.0000 0.0222
f 535//535 536//536 537//537
v -0.2900 0.1500 -0.2000
v -0.3200 0.1600 0.2500
v -0.3000 0.1400 0.2500
vn 0.7068 0.7068 0.0314
vn 0.7068 0.7068 0.0314
vn 0.7068 0.7068 0.0314
f 538//538 539//539 540//540
v -0.3200 0.1600 0.2500
v -0.3200 0.0000 0.2500
v -0.3000 0.1400 0.2500
vn 0.0000 0.0000 1.0000
vn 0.0000 0.0000 1.0000
vn 0.0000 0.0000 1.0000
f 541//541 542//542 543//543
v -0.3200 0.0000 0.2500
v -0.2900 0.0100 -0.2000
v -0.3000 0.0200 0.2500
vn 0.7068 -0.7068 0.0314
vn 0.7068 -0.7068 0.0314
vn 0.7068 -0.7068 0.0314
f 544//544 545//545 546//546
v -0.2900 0.0100 -0.2000
v -0.3000 0.1400 0.2500
v -0.3000 0.0200 0.2500
vn 0.9998 0.0000 0.0222
vn 0.9998 0.0000 0.0222
vn 0.9998 0.0000 0.0222
f 547//547 548//548 549//549
v -0.3000 0.1400 0.2500
v -0.3200 0.0000 0.2500
v -0.3000 0.0200 0.2500
vn 0.0000 0.0000 1.0000
vn 0.0000 0.0000 1.0000
vn 0.0000 0.0000 1.0000
f 550//550 551//551 552//552
v 0.3200 -0.0200 -0.2000
v 0.3900 0.0100 -0.2000
v 0.3600 -0.0200 -0.2000
vn 0.0000 0.0000 -1.0000
vn 0.0000 0.0000 -1.0000
vn 0.0000 0.0000 -1.0000
f 553//553 554//554 555//555
v 0.3200 -0.0200 -0.2000
v 0.3600 -0.0200 -0.2000
v 0.3200 0.0000 0.2500
vn 0.0000 -0.9990 0.0444
vn 0.0000 -0.9990 0.0444
vn 0.0000 -0.9990 0.0444
f 556//556 557//557 558//558
v 0.3900 0.0100 -0.2000
v 0.3200 -0.0200 -0.2000
v 0.3900 0.1500 -0.2000
vn -0.0000 0.0000 -1.0000
vn -0.0000 0.0000 -1.0000
vn -0.0000 0.0000 -1.0000
f 559//559 560//560 561//561
v 0.3900 0.1500 -0.2000
v 0.3200 -0.0200 -0.2000
v 0.3600 0.1800 -0.2000
vn -0.0000 0.0000 -1.0000
vn -0.0000 0.0000 -1.0000
vn -0.0000 0.0000 -1.0000
f 562//562 563//563 564//564
v 0.3600 0.1800 -0.2000
v 0.3200 -0.0200 -0.2000
v 0.3200 0.1800 -0.2000
vn -0.0000 0.0000 -1.0000
vn -0.0000 0.0000 -1.0000
vn -0.0000 0.0000 -1.0000
f 565//565 566//566 567//567
v 0.3200 0.1800 -0.2000
v 0.3200 -0.0200 -0.2000
v 0.2900 0.1500 -0.2000
vn 0.0000 -0.0000 -1.0000
vn 0.0000 -0.0000 -1.0000
vn 0.0000 -0.0000 -1.0000
f 568//568 569//569 570//570
v 0.3200 -0.0200 -0.2000
v 0.3200 0.0000 0.2500
v 0.2900 0.0100 -0.2000
vn -0.7068 -0.7068 0.0314
vn -0.7068 -0.7068 0.0314
vn -0.7068 -0.7068 0.0314
f 571//571 572//572 573//573
v 0.2900 0.1500 -0.2000
v 0.3200 -0.0200 -0.2000
v 0.2900 0.0100 -0.2000
vn 0.0000 0.0000 -1.0000
vn 0.0000 0.0000 -1.0000
vn 0.0000 0.0000 -1.0000
f 574//574 575//575 576//576
v 0.3600 -0.0200 -0.2000
v 0.3900 0.0100 -0.2000
v 0.3600 0.0000 0.2500
vn 0.7068 -0.7068 0.0314
vn 0.7068 -0.7068 0.0314
vn 0.7068 -0.7068 0.0314
f 577//577 578//578 579//579
v 0.3200 0.0000 0.2500
v 0.3600 -0.0200 -0.2000
v 0.3600 0.0000 0.2500
vn 0.0000 -0.9990 0.0444
vn 0.0000 -0.9990 0.0444
vn 0.0000 -0.9990 0.0444
f 580//580 581//581 582//582
v 0.3900 0.0100 -0.2000
v 0.3900 0.1500 -0.2000
v 0.3800 0.0200 0.2500
vn 0.9998 -0.0000 0.0222
vn 0.9998 -0.0000 0.0222
vn 0.9998 -0.0000 0.0222
f 583//583 584//584 585//585
v 0.3600 0.0000 0.2500
v 0.3900 0.0100 -0.2000
v 0.3800 0.0200 0.2500
vn 0.7068 -0.7068 0.0314
vn 0.7068 -0.7068 0.0314
vn 0.7068 -0.7068 0.0314
f 586//586 587//587 588//588
v 0.3200 0.0000 0.2500
v 0.3600 0.0000 0.2500
v 0.3800 0.0200 0.2500
vn 0.0000 0.0000 1.0000
vn 0.0000 0.0000 1.0000
vn 0.0000 0.0000 1.0000
f 589//589 590//590 591//591
v 0.3200 0.0000 0.2500
v 0.3800 0.0200 0.2500
v 0.3800 0.1400 0.2500
vn 0.0000 0.0000 1.0000
vn 0.0000 0.0000 1.0000
vn 0.0000 0.0000 1.0000
f 592//592 593//593 594//594
v 0.3900 0.1500 -0.2000
v 0.3600 0.1800 -0.2000
v 0.3800 0.1400 0.2500
vn 0.7068 0.7068 0.0314
vn 0.7068 0.7068 0.0314
vn 0.7068 0.7068 0.0314
f 595//595 596//596 597//597
v 0.3800 0.0200 0.2500
v 0.3900 0.1500 -0.2000
v 0.3800 0.1400 0.2500
vn 0.9998 -0.0000 0.0222
vn 0.9998 -0.0000 0.0222
vn 0.9998 -0.0000 0.0222
f 598//598 599//599 600//600
v 0.3200 0.0000 0.2500
v 0.3800 0.1400 0.2500
v 0.3600 0.1600 0.2500
vn 0.0000 0.0000 1.0000
vn 0.0000 0.0000 1.0000
vn 0.0000 0.0000 1.0000
f 601//601 602//602 603//603
v 0.3600 0.1800 -0.2000
v 0.3200 0.1800 -0.2000
v 0.3600 0.1600 0.2500
vn 0.0000 0.9990 0.0444
vn 0.0000 0.9990 0.0444
vn 0.0000 0.9990 0.0444
f 604//604 605//605 606//606
v 0.3800 0.1400 0.2500
v 0.3600 0.1800 -0.2000
v 0.3600 0.1600 0.2500
vn 0.7068 0.7068 0.0314
vn 0.7068 0.7068 0.0314
vn 0.7068 0.7068 0.0314
f 607//607 608//608 609//609
v 0.3200 0.1800 -0.2000
v 0.2900 0.1500 -0.2000
v 0.3200 0.1600 0.2500
vn -0.7068 0.7068 0.0314
vn -0.7068 0.7068 0.0314
vn -0.7068 0.7068 0.0314
f 610//610 611//611 612//612
v 0.3600 0.1600 0.2500
v 0.3200 0.1800 -0.2000
v 0.3200 0.1600 0.2500
vn 0.0000 0.9990 0.0444
vn 0.0000 0.9990 0.0444
vn 0.0000 0.9990 0.0444
f 613//613 614//614 615//615
v 0.3200 0.0000 0.2500
v 0.3600 0.1600 0.2500
v 0.3200 0.1600 0.2500
vn 0.0000 0.0000 1.0000
vn 0.0000 0.0000 1.0000
vn 0.0000 0.0000 1.0000
f 616//616 617//617 618//618
v 0.2900 0.1500 -0.2000
v 0.2900 0.0100 -0.2000
v 0.3000 0.1400 0.2500
vn -0.9998 0.0000 0.0222
vn -0.9998 0.0000 0.0222
vn -0.9998 0.0000 0.0222
f 619//619 620//620 621//621
v 0.3200 0.0000 0.2500
v 0.3200 0.1600 0.2500
v 0.3000 0.1400 0.2500
vn 0.0000 -0.0000 1.0000
vn 0.0000 -0.0000 1.0000
vn 0.0000 -0.0000 1.0000
f 622//622 623//623 624//624
v 0.3200 0.1600 0.2500
v 0.2900 0.1500 -0.2000
v 0.3000 0.1400 0.2500
vn -0.7068 0.7068 0.0314
vn -0.7068 0.7068 0.0314
vn -0.7068 0.7068 0.0314
f 625//625 626//626 627//627
v 0.2900 0.0100 -0.2000
v 0.3200 0.0000 0.2500
v 0.3000 0.0200 0.2500
vn -0.7068 -0.7068 0.0314
vn -0.7068 -0.7068 0.0314
vn -0.7068 -0.7068 0.0314
f 628//628 629//629 630//630
v 0.3200 0.0000 0.2500
v 0.3000 0.1400 0.2500
v 0.3000 0.0200 0.2500
vn 0.0000 0.0000 1.0000
vn 0.0000 0.0000 1.0000
vn 0.0000 0.0000 1.0000
f 631//631 632//632 633//633
v 0.3000 0.1400 0.2500
v 0.2900 0.0100 -0.2000
v 0.3000 0.0200 0.2500
vn -0.9998 0.0000 0.0222
vn -0.9998 0.0000 0.0222
vn -0.9998 0.0000 0.0222
f 634//634 635//635 636//636
g red
usemtl red
v 0.0250 0.0300 0.5000
v -0.0000 0.0700 0.5400
v -0.0250 0.0300 0.5000
vn 0.0000 -0.7071 0.7071
vn 0.0000 -0.7071 0.7071
vn 0.0000 -0.7071 0.7071
f 637//637 638//638 639//639
v -0.0250 0.0300 0.5000
v -0.0000 0.0700 0.5400
v -0.0400 0.0450 0.5000
vn -0.4642 -0.4642 0.7543
vn -0.4642 -0.4642 0.7543
vn -0.4642 -0.4642 0.7543
f 640//640 641//641 642//642
v -0.0400 0.0450 0.5000
v -0.0000 0.0700 0.5400
v -0.0400 0.0950 0.5000
vn -0.7071 0.0000 0.7071
vn -0.7071 0.0000 0.7071
vn -0.7071 0.0000 0.7071
f 643//643 644//644 645//645
v -0.0400 0.0950 0.5000
v -0.0000 0.0700 0.5400
v -0.0250 0.1100 0.5000
vn -0.4642 0.4642 0.7543
vn -0.4642 0.4642 0.7543
vn -0.4642 0.4642 0.7543
f 646//646 647//647 648//648
v -0.0250 0.1100 0.5000
v -0.0000 0.0700 0.5400
v 0.0250 0.1100 0.5000
vn -0.0000 0.7071 0.7071
vn -0.0000 0.7071 0.7071
vn -0.0000 0.7071 0.7071
f 649//649 650//650 651//651
v 0.0250 0.1100 0.5000
v -0.0000 0.0700 0.5400
v 0.0400 0.0950 0.5000
vn 0.4642 0.4642 0.7543
vn 0.4642 0.4642 0.7543
vn 0.4642 0.4642 0.7543
f 652//652 653//653 654//654
v -0.0000 0.0700 0.5400
v 0.0250 0.0300 0.5000
v 0.0400 0.0450 0.5000
vn 0.4642 -0.4642 0.7543
vn 0.4642 -0.4642 0.7543
vn 0.4642 -0.4642 0.7543
f 655//655 656//656 657//657
v 0.0400 0.0950 0.5000
v -0.0000 0.0700 0.5400
v 0.0400 0.0450 0.5000
vn 0.7071 0.0000 0.7071
vn 0.7071 0.0000 0.7071
vn 0.7071 0.0000 0.7071
f 658//658 659//659 660//660
v 0.0250 0.0300 0.5000
v -0.0250 0.0300 0.5000
v 0.0300 0.0250 0.4500
vn 0.0000 -0.9950 0.0995
vn 0.0000 -0.9950 0.0995
vn 0.0000 -0.9950 0.0995
f 661//661 662//662 663//663
v 0.0400 0.0450 0.5000
v 0.0250 0.0300 0.5000
v 0.0300 0.0250 0.4500
vn 0.7001 -0.7001 0.1400
vn 0.7001 -0.7001 0.1400
vn 0.7001 -0.7001 0.1400
f 664//664 665//665 666//666
v -0.0250 0.0300 0.5000
v -0.0400 0.0450 0.5000
v -0.0300 0.0250 0.4500
vn -0.7001 -0.7001 0.1400
vn -0.7001 -0.7001 0.1400
vn -0.7001 -0.7001 0.1400
f 667//667 668//668 669//669
v 0.0300 0.0250 0.4500
v -0.0250 0.0300 0.5000
v -0.0300 0.0250 0.4500
vn 0.0000 -0.9950 0.0995
vn 0.0000 -0.9950 0.0995
vn 0.0000 -0.9950 0.0995
f 670//670 671//671 672//672
v -0.0400 0.0450 0.5000
v -0.0400 0.0950 0.5000
v -0.0450 0.0400 0.4500
vn -0.9950 0.0000 0.0995
vn -0.9950 0.0000 0.0995
vn -0.9950 0.0000 0.0995
f 673//673 674//674 675//675
v -0.0300 0.0250 0.4500
v -0.0400 0.0450 0.5000
v -0.0450 0.0400 0.4500
vn -0.7001 -0.7001 0.1400
vn -0.7001 -0.7001 0.1400
vn -0.7001 -0.7001 0.1400
f 676//676 677//677 678//678
v 0.0300 0.0250 0.4500
v -0.0300 0.0250 0.4500
v -0.0450 0.0400 0.4500
vn 0.0000 0.0000 -1.0000
vn 0.0000 0.0000 -1.0000
vn 0.0000 0.0000 -1.0000
f 679//679 680//680 681//681
v 0.0300 0.0250 0.4500
v -0.0450 0.0400 0.4500
v -0.0450 0.1000 0.4500
vn 0.0000 0.0000 -1.0000
vn 0.0000 0.0000 -1.0000
vn 0.0000 0.0000 -1.0000
f 682//682 683//683 684//684
v -0.0400 0.0950 0.5000
v -0.0250 0.1100 0.5000
v -0.0450 0.1000 0.4500
vn -0.7001 0.7001 0.1400
vn -0.7001 0.7001 0.1400
vn -0.7001 0.7001 0.1400
f 685//685 686//686 687//687
v -0.0450 0.0400 0.4500
v -0.0400 0.0950 0.5000
v -0.0450 0.1000 0.4500
vn -0.9950 0.0000 0.0995
vn -0.9950 0.0000 0.0995
vn -0.9950 0.0000 0.0995
f 688//688 689//689 690//690
v -0.0250 0.1100 0.5000
v 0.0250 0.1100 0.5000
v -0.0300 0.1150 0.4500
vn -0.0000 0.9950 0.0995
vn -0.0000 0.9950 0.0995
vn -0.0000 0.9950 0.0995
f 691//691 692//692 693//693
v -0.0450 0.1000 0.4500
v -0.0250 0.1100 0.5000
v -0.0300 0.1150 0.4500
vn -0.7001 0.7001 0.1400
vn -0.7001 0.7001 0.1400
vn -0.7001 0.7001 0.1400
f 694//694 695//695 696//696
v 0.0300 0.0250 0.4500
v -0.0450 0.1000 0.4500
v -0.0300 0.1150 0.4500
vn 0.0000 0.0000 -1.0000
vn 0.0000 0.0000 -1.0000
vn 0.0000 0.0000 -1.0000
f 697//697 698//698 699//699
v 0.0250 0.1100 0.5000
v 0.0400 0.0950 0.5000
v 0.0300 0.1150 0.4500
vn 0.7001 0.7001 0.1400
vn 0.7001 0.7001 0.1400
vn 0.7001 0.7001 0.1400
f 700//700 701//701 702//702
v -0.0300 0.1150 0.4500
v 0.0250 0.1100 0.5000
v 0.0300 0.1150 0.4500
vn -0.0000 0.9950 0.0995
vn -0.0000 0.9950 0.0995
vn -0.0000 0.9950 0.0995
f 703//703 704//704 705//705
v 0.0300 0.0250 0.4500
v -0.0300 0.1150 0.4500
v 0.0300 0.1150 0.4500
vn 0.0000 0.0000 -1.0000
vn 0.0000 0.0000 -1.0000
vn 0.0000 0.0000 -1.0000
f 706//706 707//707 708//708
v 0.0400 0.0950 0.5000
v 0.0400 0.0450 0.5000
v 0.0450 0.1000 0.4500
vn 0.9950 0.0000 0.0995
vn 0.9950 0.0000 0.0995
vn 0.9950 0.0000 0.0995
f 709//709 710//710 711//711
v 0.0300 0.0250 0.4500
v 0.0300 0.1150 0.4500
v 0.0450 0.1000 0.4500
vn 0.0000 0.0000 -1.0000
vn 0.0000 0.0000 -1.0000
vn 0.0000 0.0000 -1.0000
f 712//712 713//713 714//714
v 0.0300 0.1150 0.4500
v 0.0400 0.0950 0.5000
v 0.0450 0.1000 0.4500
vn 0.7001 0.7001 0.1400
vn 0.7001 0.7001 0.1400
vn 0.7001 0.7001 0.1400
f 715//715 716//716 717//717
v 0.0400 0.0450 0.5000
v 0.0300 0.0250 0.4500
v 0.0450 0.0400 0.4500
vn 0.7001 -0.7001 0.1400
vn 0.7001 -0.7001 0.1400
vn 0.7001 -0.7001 0.1400
f 718//718 719//719 720//720
v 0.0300 0.0250 0.4500
v 0.0450 0.1000 0.4500
v 0.0450 0.0400 0.4500
vn 0.0000 0.0000 -1.0000
vn 0.0000 0.0000 -1.0000
vn 0.0000 0.0000 -1.0000
f 721//721 722//722 723//723
v 0.0450 0.1000 0.4500
v 0.0400 0.0450 0.5000
v 0.0450 0.0400 0.4500
vn 0.9950 0.0000 0.0995
vn 0.9950 0.0000 0.0995
vn 0.9950 0.0000 0.0995
f 724//724 725//725 726//726
